# xmcd
#
# Track frame offsets:
#         150
#       21135
#       39175
#       62756
#       74903
#       91346
#      113367
#      127564
#      140859
#      153833
#      163639
#      182581
#      198076
#      208492
#      237285
#      254248
#      271893
#      281341
#      306897
#      322422
#
# Disc length:   4414 seconds
#
# Revision: 0
# Processed by: cddbd v1.5.2PL0 Copyright (c) Steve Scherf et al.
# Submitted via: libcddb 1.3.0
#
DISCID=25113c14
DTITLE=Creedence Clearwater Revival - Chronicle Volume Two
DYEAR=1986
DGENRE=blues
TTITLE0=Walk On The Water
TTITLE1=Susie Q (Part 2)
TTITLE2=Born On The Bayou
TTITLE3=Good Golly Miss Molly
TTITLE4=Tombstone Shadow
TTITLE5=Wrote A Song For Everyone
TTITLE6=Night Time Is The Right Time
TTITLE7=Cotton Fields
TTITLE8=It Came Out Of The Sky
TTITLE9=Don't Look Now (It Ain't You Or Me)
TTITLE10=The Midnight Special
TTITLE11=Before You Accuse Me
TTITLE12=My Baby Left Me
TTITLE13=Pagan Baby
TTITLE14=(Wish I Could) Hideaway
TTITLE15=It's Just A Thought
TTITLE16=Molina
TTITLE17=Born To Move
TTITLE18=Lookin' For A Reason
TTITLE19=Hello Mary Lou
EXTD=
EXTT0=
EXTT1=
EXTT2=
EXTT3=
EXTT4=
EXTT5=
EXTT6=
EXTT7=
EXTT8=
EXTT9=
EXTT10=
EXTT11=
EXTT12=
EXTT13=
EXTT14=
EXTT15=
EXTT16=
EXTT17=
EXTT18=
EXTT19=
PLAYORDER=
